<?xml version='1.0' encoding='UTF-8' standalone='no'?>
<!-- Created with Fritzing (http://www.fritzing.org/) -->
<svg xmlns:svg='http://www.w3.org/2000/svg' xmlns='http://www.w3.org/2000/svg' version='1.2' baseProfile='tiny' x='0in' y='0in' width='2.81636in' height='4.16359in' viewBox='0 0 202.778 299.779' >
<path stroke='#8c8c8c' stroke-width='2.0952' stroke-linecap='round' stroke-linejoin='round' fill='none' d='M42.9558,115.71L42.9558,116.757' />
<path stroke='#8c8c8c' stroke-width='2.0952' stroke-linecap='round' stroke-linejoin='round' fill='none' d='M42.9558,89L42.9558,87.9524' />
<g partID='62450'><g transform='translate(39.3234,117.805)' ><g transform='matrix(0,-1,1,0,0,0)'  ><g xmlns="http://www.w3.org/2000/svg" id="breadboard">
 <rect xmlns="http://www.w3.org/2000/svg" x="0.36" fill="none" y="2.5848" height="0.72" id="connector0pin" width="0.72"/>
 <rect xmlns="http://www.w3.org/2000/svg" x="29.8202" fill="none" y="2.5848" height="0.72" id="connector1pin" width="0.72"/>
 <line xmlns="http://www.w3.org/2000/svg" x1="1.0476" y2="3.6324" fill="none" stroke-linecap="round" y1="3.6324" id="connector0leg" stroke-width="2.0952" x2="2.0952" stroke="#8C8C8C"/>
 <line xmlns="http://www.w3.org/2000/svg" x1="29.8526" y2="3.6324" fill="none" stroke-linecap="round" y1="3.6324" id="connector1leg" stroke-width="2.0952" x2="28.805" stroke="#8C8C8C"/>
 <path xmlns="http://www.w3.org/2000/svg" fill="none" d="M1.0476,3.6324l28.3666,0" stroke-width="2.0952" stroke="#8C8C8C"/>
 <path xmlns="http://www.w3.org/2000/svg" fill="#D9B477" id="body" d="M10.2478,0.49536c-0.36,-0.1656,-0.9792,-0.2952,-1.3752,-0.2952l-1.9872,0c-0.396,0,-0.72,0.324,-0.72,0.72l0,5.35608c0,0.39672,0.324,0.72,0.72,0.72l1.9872,0c0.396,0,1.0152,-0.13608,1.3752,-0.2952l0.072,-0.03528c0.36,-0.1656,0.9792,-0.2952,1.3752,-0.2952l7.1856,0c0.39672,0,1.01448,0.13608,1.37448,0.2952l0.07272,0.03528c0.36,0.1656,0.97776,0.2952,1.3752,0.2952l1.9872,0c0.39744,0,0.72,-0.32328,0.72,-0.72L24.4102,0.92016c0,-0.396,-0.32256,-0.72,-0.72,-0.72l-1.9872,0c-0.39744,0,-1.0152,0.1368,-1.3752,0.2952l-0.07272,0.036c-0.36,0.1656,-0.97776,0.2952,-1.37448,0.2952l-7.1856,0c-0.396,0,-1.0152,-0.1368,-1.3752,-0.2952L10.2478,0.49536z"/>
 <rect xmlns="http://www.w3.org/2000/svg" x="22.019" fill="#ad9f4e" y="0.19368" height="6.79536" id="gold_band" width="0.70272"/>
 <rect xmlns="http://www.w3.org/2000/svg" x="16.1726" fill="#c40808" y="0.82656" height="5.5368" id="band_rd_multiplier" width="1.8504"/>
 <rect xmlns="http://www.w3.org/2000/svg" x="12.4726" fill="#c40808" y="0.82656" height="5.5368" id="band_2_nd" width="1.8504"/>
 <path xmlns="http://www.w3.org/2000/svg" fill="#c40808" id="band_1_st" d="M10.6286,0.63936c-0.1152,-0.036,-0.2232,-0.072,-0.3096,-0.1152l-0.072,-0.036c-0.36,-0.16488,-0.9792,-0.2952,-1.3752,-0.2952l-0.0864,0l0,6.79608l0.0864,0c0.396,0,1.0152,-0.13608,1.3752,-0.2952l0.072,-0.03528c0.0864,-0.04464,0.1944,-0.07992,0.3096,-0.1152L10.6286,0.63936z"/>
 <path xmlns="http://www.w3.org/2000/svg" opacity="0.3" id="Shadow" d="M23.711,4.0896L23.711,4.0896c0,0.37944,-0.13032,0.69912,-0.2952,0.69912l-1.9224,0c-0.38016,0,-0.97776,-0.05616,-1.33272,-0.1224L20.088,4.65048c-0.34488,-0.0648,-0.94896,-0.1224,-1.33344,-0.1224L11.808,4.52808c-0.3816,0,-0.9792,0.0576,-1.332,0.1224l-0.072,0.01512c-0.3456,0.06552,-0.9432,0.1224,-1.332,0.1224l-0.3168,0l-1.0008,0l-0.3096,0c-0.3816,0,-0.6984,0.29376,-0.6984,0.64512l0,0.24696L6.7464,5.8392l0,0.1728c0,0.36,0.3168,0.64512,0.6984,0.64512l1.62,0c0.3816,0,0.9792,-0.1224,1.332,-0.26712l0.072,-0.02808c0.3456,-0.14112,0.9504,-0.26496,1.332,-0.26496l6.94656,0c0.37944,0,0.97704,0.12384,1.33416,0.26568l0.07416,0.02808c0.34488,0.14472,0.94464,0.26712,1.33344,0.26712l2.2248,0c0.38088,0,0.69912,-0.2952,0.69912,-0.64512L24.413,5.472L24.413,4.49928L24.413,2.65536C24.1358,2.76336,23.711,3.06576,23.711,4.0896z"/>
 <rect xmlns="http://www.w3.org/2000/svg" x="22.019" y="3.48336" opacity="0.4" height="3.15288" id="ShadowExtra" width="0.70272"/>
 <path xmlns="http://www.w3.org/2000/svg" fill="#FFFFFF" opacity="0.25" id="ReflexRight" d="M19.751,1.08576c0.22968,0,0.49104,-0.1008,0.6624,-0.1728c0.2016,-0.0792,0.57672,-0.144,0.96624,-0.144l1.46088,0c0.22464,0,0.22464,0.2448,0.22464,0.3744c0,0.1296,-0.01512,0.3816,-0.22464,0.3816l-3.06,0c-0.10728,0,-0.2304,-0.1152,-0.2304,-0.22392C19.5566,1.21536,19.6286,1.08576,19.751,1.08576z"/>
 <circle xmlns="http://www.w3.org/2000/svg" r="0.432" fill="#FFFFFF" opacity="0.35" id="ReflexLeft" cx="6.99984" cy="1.13616"/>
 <rect xmlns="http://www.w3.org/2000/svg" x="22.019" fill="#FFFF33" y="0.42336" opacity="0.5" height="1.62" id="Reflex_gold" width="0.70272"/>
 <rect xmlns="http://www.w3.org/2000/svg" x="22.019" fill="#FFFFFF" y="0.78336" opacity="0.5" height="0.7488" id="Reflex_extra" width="0.70272"/>
</g>
</g></g></g><path stroke='#8c8c8c' stroke-width='2.0952' stroke-linecap='round' stroke-linejoin='round' fill='none' d='M42.9558,85.0119L42.9558,87.9575' />
<path stroke='#8c8c8c' stroke-width='2.0952' stroke-linecap='round' stroke-linejoin='round' fill='none' d='M42.9558,58.3021L42.9558,57.2545' />
<g partID='62430'><g transform='translate(39.3234,87.1071)' ><g transform='matrix(0,-1,1,0,0,0)'  ><g xmlns="http://www.w3.org/2000/svg" id="breadboard">
 <rect xmlns="http://www.w3.org/2000/svg" x="0.36" fill="none" y="2.5848" height="0.72" id="connector0pin" width="0.72"/>
 <rect xmlns="http://www.w3.org/2000/svg" x="29.8202" fill="none" y="2.5848" height="0.72" id="connector1pin" width="0.72"/>
 <line xmlns="http://www.w3.org/2000/svg" x1="1.0476" y2="3.6324" fill="none" stroke-linecap="round" y1="3.6324" id="connector0leg" stroke-width="2.0952" x2="2.0952" stroke="#8C8C8C"/>
 <line xmlns="http://www.w3.org/2000/svg" x1="29.8526" y2="3.6324" fill="none" stroke-linecap="round" y1="3.6324" id="connector1leg" stroke-width="2.0952" x2="28.805" stroke="#8C8C8C"/>
 <path xmlns="http://www.w3.org/2000/svg" fill="none" d="M1.0476,3.6324l28.3666,0" stroke-width="2.0952" stroke="#8C8C8C"/>
 <path xmlns="http://www.w3.org/2000/svg" fill="#D9B477" id="body" d="M10.2478,0.49536c-0.36,-0.1656,-0.9792,-0.2952,-1.3752,-0.2952l-1.9872,0c-0.396,0,-0.72,0.324,-0.72,0.72l0,5.35608c0,0.39672,0.324,0.72,0.72,0.72l1.9872,0c0.396,0,1.0152,-0.13608,1.3752,-0.2952l0.072,-0.03528c0.36,-0.1656,0.9792,-0.2952,1.3752,-0.2952l7.1856,0c0.39672,0,1.01448,0.13608,1.37448,0.2952l0.07272,0.03528c0.36,0.1656,0.97776,0.2952,1.3752,0.2952l1.9872,0c0.39744,0,0.72,-0.32328,0.72,-0.72L24.4102,0.92016c0,-0.396,-0.32256,-0.72,-0.72,-0.72l-1.9872,0c-0.39744,0,-1.0152,0.1368,-1.3752,0.2952l-0.07272,0.036c-0.36,0.1656,-0.97776,0.2952,-1.37448,0.2952l-7.1856,0c-0.396,0,-1.0152,-0.1368,-1.3752,-0.2952L10.2478,0.49536z"/>
 <rect xmlns="http://www.w3.org/2000/svg" x="22.019" fill="#ad9f4e" y="0.19368" height="6.79536" id="gold_band" width="0.70272"/>
 <rect xmlns="http://www.w3.org/2000/svg" x="16.1726" fill="#c40808" y="0.82656" height="5.5368" id="band_rd_multiplier" width="1.8504"/>
 <rect xmlns="http://www.w3.org/2000/svg" x="12.4726" fill="#000000" y="0.82656" height="5.5368" id="band_2_nd" width="1.8504"/>
 <path xmlns="http://www.w3.org/2000/svg" fill="#8a3d06" id="band_1_st" d="M10.6286,0.63936c-0.1152,-0.036,-0.2232,-0.072,-0.3096,-0.1152l-0.072,-0.036c-0.36,-0.16488,-0.9792,-0.2952,-1.3752,-0.2952l-0.0864,0l0,6.79608l0.0864,0c0.396,0,1.0152,-0.13608,1.3752,-0.2952l0.072,-0.03528c0.0864,-0.04464,0.1944,-0.07992,0.3096,-0.1152L10.6286,0.63936z"/>
 <path xmlns="http://www.w3.org/2000/svg" opacity="0.3" id="Shadow" d="M23.711,4.0896L23.711,4.0896c0,0.37944,-0.13032,0.69912,-0.2952,0.69912l-1.9224,0c-0.38016,0,-0.97776,-0.05616,-1.33272,-0.1224L20.088,4.65048c-0.34488,-0.0648,-0.94896,-0.1224,-1.33344,-0.1224L11.808,4.52808c-0.3816,0,-0.9792,0.0576,-1.332,0.1224l-0.072,0.01512c-0.3456,0.06552,-0.9432,0.1224,-1.332,0.1224l-0.3168,0l-1.0008,0l-0.3096,0c-0.3816,0,-0.6984,0.29376,-0.6984,0.64512l0,0.24696L6.7464,5.8392l0,0.1728c0,0.36,0.3168,0.64512,0.6984,0.64512l1.62,0c0.3816,0,0.9792,-0.1224,1.332,-0.26712l0.072,-0.02808c0.3456,-0.14112,0.9504,-0.26496,1.332,-0.26496l6.94656,0c0.37944,0,0.97704,0.12384,1.33416,0.26568l0.07416,0.02808c0.34488,0.14472,0.94464,0.26712,1.33344,0.26712l2.2248,0c0.38088,0,0.69912,-0.2952,0.69912,-0.64512L24.413,5.472L24.413,4.49928L24.413,2.65536C24.1358,2.76336,23.711,3.06576,23.711,4.0896z"/>
 <rect xmlns="http://www.w3.org/2000/svg" x="22.019" y="3.48336" opacity="0.4" height="3.15288" id="ShadowExtra" width="0.70272"/>
 <path xmlns="http://www.w3.org/2000/svg" fill="#FFFFFF" opacity="0.25" id="ReflexRight" d="M19.751,1.08576c0.22968,0,0.49104,-0.1008,0.6624,-0.1728c0.2016,-0.0792,0.57672,-0.144,0.96624,-0.144l1.46088,0c0.22464,0,0.22464,0.2448,0.22464,0.3744c0,0.1296,-0.01512,0.3816,-0.22464,0.3816l-3.06,0c-0.10728,0,-0.2304,-0.1152,-0.2304,-0.22392C19.5566,1.21536,19.6286,1.08576,19.751,1.08576z"/>
 <circle xmlns="http://www.w3.org/2000/svg" r="0.432" fill="#FFFFFF" opacity="0.35" id="ReflexLeft" cx="6.99984" cy="1.13616"/>
 <rect xmlns="http://www.w3.org/2000/svg" x="22.019" fill="#FFFF33" y="0.42336" opacity="0.5" height="1.62" id="Reflex_gold" width="0.70272"/>
 <rect xmlns="http://www.w3.org/2000/svg" x="22.019" fill="#FFFFFF" y="0.78336" opacity="0.5" height="0.7488" id="Reflex_extra" width="0.70272"/>
</g>
</g></g></g><g partID='65870'><line stroke-linecap='round' stroke='#1b5bb3' x1='125.623' y1='296.576' x2='125.756' y2='213.957' stroke-width='3.2' /><line stroke-linecap='round' stroke='#418dd9' x1='125.623' y1='296.576' x2='125.756' y2='213.957' stroke-width='1.6' /></g><g partID='65720'><line stroke-linecap='round' stroke='#1b5bb3' x1='3.201' y1='296.576' x2='125.623' y2='296.576' stroke-width='3.2' /><line stroke-linecap='round' stroke='#418dd9' x1='3.201' y1='296.576' x2='125.623' y2='296.576' stroke-width='1.6' /></g><g partID='59270'><line stroke-linecap='round' stroke='#1b5bb3' x1='21.3558' y1='185.157' x2='3.201' y2='185.168' stroke-width='3.2' /><line stroke-linecap='round' stroke='#418dd9' x1='21.3558' y1='185.157' x2='3.201' y2='185.168' stroke-width='1.6' /></g><g partID='65570'><line stroke-linecap='round' stroke='#1b5bb3' x1='3.201' y1='185.168' x2='3.201' y2='296.576' stroke-width='3.2' /><line stroke-linecap='round' stroke='#418dd9' x1='3.201' y1='185.168' x2='3.201' y2='296.576' stroke-width='1.6' /></g><g partID='59450'><line stroke-linecap='round' stroke='#1b5bb3' x1='104.156' y1='98.7575' x2='104.019' y2='257.181' stroke-width='3.2' /><line stroke-linecap='round' stroke='#418dd9' x1='104.156' y1='98.7575' x2='104.019' y2='257.181' stroke-width='1.6' /></g><g partID='59840'><line stroke-linecap='round' stroke='#1b5bb3' x1='104.019' y1='257.181' x2='64.5558' y2='257.157' stroke-width='3.2' /><line stroke-linecap='round' stroke='#418dd9' x1='104.019' y1='257.181' x2='64.5558' y2='257.157' stroke-width='1.6' /></g><g partID='59590'><line stroke-linecap='round' stroke='#1b5bb3' x1='21.3558' y1='170.757' x2='21.416' y2='170.765' stroke-width='3.2' /><line stroke-linecap='round' stroke='#418dd9' x1='21.3558' y1='170.757' x2='21.416' y2='170.765' stroke-width='1.6' /></g><g partID='59730'><line stroke-linecap='round' stroke='#1b5bb3' x1='21.416' y1='170.765' x2='89.7559' y2='98.7575' stroke-width='3.2' /><line stroke-linecap='round' stroke='#418dd9' x1='21.416' y1='170.765' x2='89.7559' y2='98.7575' stroke-width='1.6' /></g><g partID='59910'><line stroke-linecap='round' stroke='#1b5bb3' x1='64.5558' y1='185.157' x2='125.756' y2='192.356' stroke-width='3.2' /><line stroke-linecap='round' stroke='#418dd9' x1='64.5558' y1='185.157' x2='125.756' y2='192.356' stroke-width='1.6' /></g><g partID='60120'><line stroke-linecap='round' stroke='#1b5bb3' x1='64.5558' y1='235.557' x2='125.756' y2='206.758' stroke-width='3.2' /><line stroke-linecap='round' stroke='#418dd9' x1='64.5558' y1='235.557' x2='125.756' y2='206.758' stroke-width='1.6' /></g><g partID='60190'><line stroke-linecap='round' stroke='#1b5bb3' x1='125.756' y1='199.556' x2='64.5558' y2='242.757' stroke-width='3.2' /><line stroke-linecap='round' stroke='#418dd9' x1='125.756' y1='199.556' x2='64.5558' y2='242.757' stroke-width='1.6' /></g><g partID='64340'><line stroke-linecap='round' stroke='#1b5bb3' x1='42.9558' y1='116.757' x2='64.5558' y2='170.757' stroke-width='3.2' /><line stroke-linecap='round' stroke='#418dd9' x1='42.9558' y1='116.757' x2='64.5558' y2='170.757' stroke-width='1.6' /></g><g partID='64810'><line stroke-linecap='round' stroke='#1b5bb3' x1='21.416' y1='52.1558' x2='21.3558' y2='163.557' stroke-width='3.2' /><line stroke-linecap='round' stroke='#418dd9' x1='21.416' y1='52.1558' x2='21.3558' y2='163.557' stroke-width='1.6' /></g><g partID='64880'><line stroke-linecap='round' stroke='#1b5bb3' x1='43.0198' y1='52.1558' x2='21.416' y2='52.1558' stroke-width='3.2' /><line stroke-linecap='round' stroke='#418dd9' x1='43.0198' y1='52.1558' x2='21.416' y2='52.1558' stroke-width='1.6' /></g><g partID='64740'><line stroke-linecap='round' stroke='#1b5bb3' x1='42.9558' y1='57.2545' x2='43.0198' y2='52.1558' stroke-width='3.2' /><line stroke-linecap='round' stroke='#418dd9' x1='42.9558' y1='57.2545' x2='43.0198' y2='52.1558' stroke-width='1.6' /></g><g partID='64950'><line stroke-linecap='round' stroke='#1b5bb3' x1='42.9558' y1='87.9575' x2='82.5558' y2='98.7575' stroke-width='3.2' /><line stroke-linecap='round' stroke='#418dd9' x1='42.9558' y1='87.9575' x2='82.5558' y2='98.7575' stroke-width='1.6' /></g><g partID='65100'><line stroke-linecap='round' stroke='#1b5bb3' x1='64.5558' y1='170.757' x2='96.9558' y2='98.7575' stroke-width='3.2' /><line stroke-linecap='round' stroke='#418dd9' x1='64.5558' y1='170.757' x2='96.9558' y2='98.7575' stroke-width='1.6' /></g></svg>